PathFileType  4	(X/Y/Z) C:\Users\antoi\Documents\MyRepositories\mobilecap\ResultsAnalysis
DataRate	CameraRate	NumFrames	NumMarkers	Units	OrigDataRate	OrigDataStartFrame	OrigNumFrames
100.0	100.0	6	51	mm	100.0	1200	1371
Frame#	Time	r_knee			r_shank_antsup			r_ankle			r_calc			r_5meta			r_toe			L_knee			L_shank_antsup			L_ankle			L_calc			L_5meta			L_toe			r_sh2			r_sh3			r_sh4			L_sh2			L_sh3			r_thigh1			r_thigh2			r_thigh3			r_thigh4			r_thigh5			L_thigh1			L_thigh2			L_thigh3			L_thigh4			r.ASIS			r.PSIS			L.ASIS			L.PSIS			C7			R_Shoulder			L_Shoulder			R_Sternum			L_Sternum			R_humerus			R_elbow_med			R_elbow_lat			R_forearm			R_wrist_radius			R_wrist_ulna			L_humerus			L_elbow_med			L_elbow_lat			L_forearm			L_wrist_radius			L_wrist_ulna			R_HJC			L_HJC			R_HJC_reg			L_HJC_reg			
		X1	Y1	Z1	X2	Y2	Z2	X3	Y3	Z3	X4	Y4	Z4	X5	Y5	Z5	X6	Y6	Z6	X7	Y7	Z7	X8	Y8	Z8	X9	Y9	Z9	X10	Y10	Z10	X11	Y11	Z11	X12	Y12	Z12	X13	Y13	Z13	X14	Y14	Z14	X15	Y15	Z15	X16	Y16	Z16	X17	Y17	Z17	X18	Y18	Z18	X19	Y19	Z19	X20	Y20	Z20	X21	Y21	Z21	X22	Y22	Z22	X23	Y23	Z23	X24	Y24	Z24	X25	Y25	Z25	X26	Y26	Z26	X27	Y27	Z27	X28	Y28	Z28	X29	Y29	Z29	X30	Y30	Z30	X31	Y31	Z31	X32	Y32	Z32	X33	Y33	Z33	X34	Y34	Z34	X35	Y35	Z35	X36	Y36	Z36	X37	Y37	Z37	X38	Y38	Z38	X39	Y39	Z39	X40	Y40	Z40	X41	Y41	Z41	X42	Y42	Z42	X43	Y43	Z43	X44	Y44	Z44	X45	Y45	Z45	X46	Y46	Z46	X47	Y47	Z47	X48	Y48	Z48	X49	Y49	Z49	X50	Y50	Z50	X51	Y51	Z51	

1200	11.99000000	-205.55774	505.15802	-420.43502	-168.53798	459.32660	-424.46773	-248.10447	97.31900	-428.86068	-306.88362	58.02009	-477.28192	-127.96192	40.41400	-384.76064	-85.37533	59.94813	-439.01800	-218.25706	500.89407	-778.09070	-197.61409	416.96282	-793.27691	-265.50688	97.03742	-753.19175	-324.34003	58.06145	-702.49103	-149.40716	41.11508	-792.04550	-102.06421	58.52319	-740.27419	-175.22199	343.78061	-430.90401	-238.08946	460.86103	-389.97054	-243.31179	344.67441	-381.89607	-284.59763	432.59269	-800.02706	-292.83934	310.24244	-797.82269	-106.87349	797.03277	-488.97538	-102.50172	686.62016	-473.01334	-130.01096	671.54694	-411.76166	-178.90564	806.68681	-402.94009	-178.15814	691.17498	-392.59593	-161.36750	823.99606	-786.87275	-167.07944	683.04136	-802.33966	-273.16163	827.54837	-780.40694	-278.58114	685.05033	-768.44968	-128.26623	974.74364	-472.69250	-316.24372	1000.07312	-555.10568	-123.79985	960.32011	-715.88295	-316.97502	999.90339	-653.64248	-251.45918	1465.59378	-622.15093	-182.96284	1440.37590	-454.11749	-180.44380	1425.85939	-779.82330	-134.13366	1380.40211	-596.53415	-132.00843	1377.06286	-633.96962	-227.65707	1225.58152	-344.62188	-305.78683	1131.41930	-362.77982	-257.70915	1143.40362	-310.05847	-132.62740	1137.79951	-377.80723	-63.50068	1158.24902	-447.23571	-50.71660	1119.61943	-427.72085	-235.34666	1209.02241	-873.02307	-297.98294	1099.51647	-831.44972	-268.18279	1107.31962	-897.32418	-132.66793	1105.06835	-834.59304	-54.48191	1130.41231	-770.87820	-47.24204	1085.44968	-770.39356	-199.25752	889.62681	-509.73915	-207.99318	889.77209	-700.21025	-192.54197	892.04431	-505.95429	-193.73523	891.76716	-666.76429	
1201	12.00000000	-205.90038	505.15449	-420.37414	-168.79289	459.32082	-424.48646	-248.14510	97.29201	-428.84038	-306.85985	57.90486	-477.27029	-127.96946	40.37080	-384.71055	-85.37719	59.94139	-439.01316	-218.50696	500.84874	-778.15737	-197.76318	416.95424	-793.26292	-265.51980	97.01065	-753.18811	-324.34888	58.04906	-702.49898	-149.41067	41.10440	-792.04594	-102.07071	58.50738	-740.26629	-175.33864	343.47075	-430.75121	-238.33887	460.96263	-389.72772	-243.42566	344.58904	-381.84158	-284.74264	432.51715	-800.06671	-292.95134	310.19943	-797.77617	-107.42726	797.10191	-488.90683	-103.00163	686.62272	-472.89845	-130.45416	671.42287	-411.79647	-179.45830	806.73025	-402.84829	-178.61863	691.31158	-392.31156	-161.73655	823.93672	-786.65612	-167.41043	682.93209	-802.21393	-273.52278	827.38888	-780.40149	-278.90639	685.07925	-768.57253	-128.75036	974.66746	-472.61366	-316.77224	1000.11009	-555.17627	-124.38031	960.44515	-715.75261	-317.49664	1000.00511	-653.47343	-251.39822	1465.61605	-622.16171	-183.02746	1440.33659	-454.02933	-180.38535	1425.72996	-779.78595	-134.21883	1380.21203	-596.34938	-132.07651	1376.90464	-633.93814	-227.89921	1225.53077	-344.60420	-306.21208	1131.48440	-362.86508	-258.06297	1143.32994	-310.23833	-133.02502	1137.68540	-377.91133	-63.90401	1158.19219	-447.36329	-51.20692	1119.41545	-428.04395	-235.51302	1208.88019	-872.87524	-298.34686	1099.56049	-831.25381	-268.55978	1107.26410	-897.23793	-133.05007	1104.88443	-834.36824	-54.82004	1130.20466	-770.79684	-47.53920	1085.24372	-770.18158	-199.81224	889.60411	-509.72903	-208.53570	889.88919	-700.20052	-193.09782	892.04872	-505.92382	-194.28286	891.87718	-666.69113	
1202	12.01000000	-206.29688	505.04872	-420.42051	-169.03642	459.34790	-424.52538	-248.15239	97.25296	-428.83548	-306.83632	57.78601	-477.26033	-127.99411	40.32968	-384.68642	-85.38104	59.93250	-439.01843	-218.63616	500.90107	-778.27903	-197.92906	416.91903	-793.26443	-265.53337	96.98701	-753.18860	-324.34751	58.04154	-702.50665	-149.41018	41.09699	-792.04864	-102.06824	58.50727	-740.27221	-175.52402	343.26564	-430.57388	-238.74602	460.64052	-389.81244	-243.49778	344.41957	-382.08637	-284.92975	432.42162	-800.05109	-293.05809	310.11720	-797.72946	-108.04464	797.15338	-488.84479	-103.49065	686.61861	-472.83417	-130.90549	671.44194	-411.67662	-180.04183	806.69806	-402.72964	-179.09302	691.45259	-392.06491	-162.13814	823.96532	-786.56212	-167.76171	682.83416	-802.03524	-273.91622	827.29687	-780.58317	-279.25360	685.15225	-768.94270	-129.36657	974.58171	-472.52573	-317.33202	1000.13382	-555.27553	-125.02332	960.55898	-715.53981	-318.14370	1000.12128	-653.22581	-251.35608	1465.64363	-622.16854	-183.08357	1440.32143	-453.93362	-180.34180	1425.60267	-779.75412	-134.32277	1380.07060	-596.16704	-132.21232	1376.76700	-633.91468	-228.22426	1225.49892	-344.60377	-306.62055	1131.52643	-362.90965	-258.46083	1143.27099	-310.43953	-133.45213	1137.58605	-378.02072	-64.34471	1158.14831	-447.43233	-51.64836	1119.30104	-428.38649	-235.67647	1208.75627	-872.75556	-298.59946	1099.54834	-831.14807	-268.87783	1107.25355	-897.23556	-133.38474	1104.67186	-834.17766	-55.13087	1129.96698	-770.63281	-47.92911	1084.97872	-769.89482	-200.47130	889.57335	-509.68287	-209.16026	890.00254	-700.15569	-193.65834	892.03787	-505.82843	-194.99011	892.01731	-666.50449	
1203	12.02000000	-206.67078	504.97456	-420.42710	-169.35127	459.33633	-424.54005	-248.13495	97.24802	-428.82449	-306.83257	57.72477	-477.26175	-128.03802	40.29525	-384.68716	-85.38409	59.92076	-439.03156	-218.73001	500.96008	-778.37106	-198.12203	416.91425	-793.28849	-265.54284	96.97081	-753.18920	-324.34505	58.02792	-702.51966	-149.40840	41.09025	-792.05285	-102.06370	58.50960	-740.29049	-175.74307	343.28977	-430.51010	-239.26332	460.28226	-390.02852	-243.74077	344.37789	-382.28567	-285.12914	432.30361	-799.95612	-293.12235	310.02372	-797.73119	-108.70625	797.18665	-488.81723	-104.03661	686.64400	-472.74359	-131.45114	671.57070	-411.52781	-180.65034	806.67185	-402.69110	-179.64197	691.52719	-391.92700	-162.64211	824.00023	-786.40817	-168.12923	682.81679	-801.92305	-274.37767	827.36155	-780.97928	-279.67508	685.08444	-769.10869	-130.05910	974.53077	-472.43588	-317.98290	1000.14801	-555.32063	-125.67955	960.57695	-715.32648	-318.88197	1000.19200	-653.08372	-251.33288	1465.67427	-622.15419	-183.16496	1440.30237	-453.83010	-180.32092	1425.48909	-779.71527	-134.45441	1379.96522	-596.08727	-132.38387	1376.64507	-633.86591	-228.57707	1225.52494	-344.66972	-307.03048	1131.58244	-362.89031	-258.89966	1143.21386	-310.60299	-133.93749	1137.50145	-378.16190	-64.79805	1158.06602	-447.55919	-52.09825	1119.22518	-428.59114	-235.81687	1208.67345	-872.66074	-298.83650	1099.51813	-831.16454	-269.12766	1107.21486	-897.19128	-133.64655	1104.47807	-834.09092	-55.41803	1129.70236	-770.39874	-48.38947	1084.65662	-769.51816	-201.20936	889.55779	-509.59974	-209.83916	890.03730	-700.07512	-194.27002	892.02134	-505.70166	-195.74642	892.09322	-666.29311	
1204	12.03000000	-207.02193	505.04655	-420.30686	-169.76299	459.24957	-424.55817	-248.15059	97.26417	-428.80712	-306.84581	57.70376	-477.26368	-128.03259	40.31319	-384.68576	-85.38592	59.91700	-439.04729	-218.84064	500.97082	-778.45374	-198.31883	416.93030	-793.27478	-265.54903	96.95678	-753.18944	-324.35116	58.00076	-702.53580	-149.41147	41.07637	-792.05526	-102.06767	58.49687	-740.30332	-175.97268	343.55019	-430.63144	-239.67193	460.21472	-390.05296	-244.21900	344.65604	-381.98308	-285.30107	432.20598	-799.82133	-293.18096	309.95774	-797.73028	-109.41775	797.20512	-488.78301	-104.68752	686.71011	-472.62873	-132.00495	671.73823	-411.40784	-181.35524	806.72573	-402.71646	-180.15987	691.61140	-391.75243	-163.26751	823.99217	-786.12691	-168.52662	682.90085	-802.02634	-275.02281	827.27771	-781.08839	-280.17580	684.91605	-769.05889	-130.78552	974.53237	-472.42838	-318.75993	1000.19060	-555.19573	-126.41388	960.49037	-715.15322	-319.62967	1000.28121	-653.15446	-251.32179	1465.72432	-622.14541	-183.29803	1440.28892	-453.75077	-180.31497	1425.36701	-779.64037	-134.61653	1379.87768	-596.05287	-132.54423	1376.52749	-633.78354	-228.98299	1225.58112	-344.78470	-307.54610	1131.66846	-362.96577	-259.38253	1143.19174	-310.73191	-134.50579	1137.41936	-378.30159	-65.29922	1157.94701	-447.74897	-52.67753	1119.15110	-428.70036	-235.94377	1208.60304	-872.56908	-299.15062	1099.53103	-831.21388	-269.37264	1107.12699	-897.06101	-133.86866	1104.31860	-834.09769	-55.69685	1129.39556	-770.17369	-48.80107	1084.30223	-769.19253	-202.02200	889.58295	-509.51060	-210.62008	890.01308	-699.98757	-195.03118	891.98329	-505.72092	-196.45621	892.13148	-666.20680	
1205	12.04000000	-207.38543	505.14452	-420.18096	-170.17560	459.17619	-424.57205	-248.23068	97.21477	-428.84606	-306.86224	57.68386	-477.25588	-127.97490	40.38181	-384.69399	-85.39463	59.93413	-439.06076	-218.98296	500.91778	-778.44444	-198.48276	416.93927	-793.22817	-265.55572	96.94359	-753.19152	-324.36050	57.97401	-702.54753	-149.41692	41.05775	-792.05745	-102.07784	58.48464	-740.31356	-176.24564	343.91040	-430.80913	-239.89998	460.31457	-389.89872	-244.57731	344.91713	-381.65994	-285.43925	432.16721	-799.71905	-293.27078	309.88797	-797.66014	-110.19110	797.23619	-488.71924	-105.34852	686.79549	-472.56071	-132.52500	671.86209	-411.27972	-182.16814	806.77217	-402.69708	-180.64763	691.64825	-391.66391	-163.95934	824.01274	-785.96337	-168.96886	683.07802	-802.25535	-275.92661	826.72475	-780.50008	-280.70318	684.81546	-769.10396	-131.58222	974.51324	-472.48622	-319.67932	1000.30654	-555.03187	-127.23229	960.43896	-714.98340	-320.34480	1000.37435	-653.29424	-251.31335	1465.80791	-622.15409	-183.48497	1440.32377	-453.74905	-180.32662	1425.23176	-779.54814	-134.79593	1379.79622	-595.98421	-132.71189	1376.40305	-633.67256	-229.47898	1225.57112	-344.88674	-308.14726	1131.78237	-363.18684	-259.90468	1143.26817	-310.80458	-135.05763	1137.38352	-378.35123	-65.83964	1157.85878	-447.86487	-53.34417	1119.04951	-428.83670	-236.08460	1208.51322	-872.45657	-299.51933	1099.58623	-831.25286	-269.62347	1107.06263	-896.95263	-134.10098	1104.13186	-834.06963	-55.96508	1129.03788	-769.99344	-49.10663	1083.93607	-769.06573	-202.92288	889.61703	-509.45556	-211.47671	890.02100	-699.93463	-196.06797	892.07631	-505.86216	-197.15437	892.18734	-666.20123	
